<svg id="Layer_1" data-name="Layer 1" xmlns="http://www.w3.org/2000/svg" viewBox="0 0 30.5 21.22"><defs><style>.cls-1{fill:#818181;}</style></defs><title>bath</title><path class="cls-1" d="M2,17.87a6.21,6.21,0,0,0,3.2,5.41L3.59,24.88a1,1,0,0,0,0,1.43,1,1,0,0,0,1.46,0L7.38,24a6.46,6.46,0,0,0,1,.08H23.62a6.46,6.46,0,0,0,1-.08l2.32,2.28a1,1,0,0,0,1.46,0,1,1,0,0,0,0-1.43l-1.62-1.59A6.21,6.21,0,0,0,30,17.87v-2.5H2v2.5Zm28-5.62H5.2V9.14a1.88,1.88,0,0,1,1.91-2,2,2,0,0,1,2.07,2h1.75a3.81,3.81,0,0,0-7.63,0v3.12H2A1.26,1.26,0,0,0,.75,13.5v0.62h30.5V13.5A1.26,1.26,0,0,0,30,12.26Z" transform="translate(-0.75 -5.39)"/></svg>