<?xml version="1.0" encoding="utf-8"?>
<!-- Generator: Adobe Illustrator 19.2.1, SVG Export Plug-In . SVG Version: 6.00 Build 0)  -->
<svg version="1.1" id="Layer_1" xmlns="http://www.w3.org/2000/svg" xmlns:xlink="http://www.w3.org/1999/xlink" x="0px" y="0px"
	 width="30.5px" height="21.2px" viewBox="0 0 30.5 21.2" enable-background="new 0 0 30.5 21.2" xml:space="preserve">
<title>bath</title>
<path fill="#818181" d="M1.3,12.5c0,2.2,1.2,4.3,3.2,5.4l-1.6,1.6c-0.4,0.4-0.4,1,0,1.4c0,0,0,0,0,0c0.4,0.4,1,0.4,1.4,0
	c0,0,0,0,0,0l2.3-2.3c0.3,0.1,0.7,0.1,1,0.1h15.2c0.3,0,0.7,0,1-0.1l2.3,2.3c0.4,0.4,1,0.4,1.4,0c0,0,0,0,0,0c0.4-0.4,0.4-1,0-1.4
	c0,0,0,0,0,0L26,17.9c2-1.1,3.2-3.1,3.2-5.4V10h-28V12.5z M29.3,6.9H4.4V3.8c-0.1-1,0.7-1.9,1.8-2c0.1,0,0.1,0,0.2,0
	c1.1,0,2,0.8,2.1,1.9c0,0,0,0,0,0.1h1.8c0-2.1-1.7-3.8-3.8-3.8S2.5,1.6,2.5,3.8v3.1H1.3C0.6,6.9,0,7.4,0,8.1v0.6h30.5V8.1
	C30.5,7.4,29.9,6.9,29.3,6.9L29.3,6.9z"/>
</svg>
