<?xml version="1.0" encoding="utf-8"?>
<!-- Generator: Adobe Illustrator 19.2.1, SVG Export Plug-In . SVG Version: 6.00 Build 0)  -->
<svg version="1.1" id="Layer_1" xmlns="http://www.w3.org/2000/svg" xmlns:xlink="http://www.w3.org/1999/xlink" x="0px" y="0px"
	 width="30.8px" height="21px" viewBox="0 0 30.8 21" enable-background="new 0 0 30.8 21" xml:space="preserve">
<title>lock</title>
<path fill="#818181" d="M2.6,1.3C2.6,0.6,2,0,1.3,0C0.6,0,0,0.6,0,1.3V21h2.6v-5.3H9v-5.2H2.6V1.3z M29.8,10.5h-1.6V21h2.6v-9.5
	C30.7,10.9,30.3,10.5,29.8,10.5L29.8,10.5z M25,5.2H10.3V17h16.7V7.2C26.9,6.1,26.1,5.3,25,5.2C25,5.2,25,5.2,25,5.2L25,5.2z
	 M6.4,3.9C4.9,3.9,3.7,5,3.7,6.5s1.1,2.6,2.6,2.7s2.6-1.1,2.7-2.6c0,0,0,0,0-0.1C8.9,5.1,7.8,3.9,6.4,3.9C6.4,3.9,6.4,3.9,6.4,3.9z"
	/>
</svg>
