<svg id="Layer_1" data-name="Layer 1" xmlns="http://www.w3.org/2000/svg" viewBox="0 0 30.75 20.97"><defs><style>.cls-1{fill:#818181;}</style></defs><title>lock</title><path class="cls-1" d="M3.19,6.44A1.3,1.3,0,0,0,1.91,5.13,1.3,1.3,0,0,0,.63,6.44V26.1H3.19V20.85H9.59V15.61H3.19V6.44Zm27.23,9.17h-1.6V26.1h2.56v-9.5A1,1,0,0,0,30.41,15.61Zm-4.8-5.24H10.88V22.16H27.53V12.34A1.94,1.94,0,0,0,25.61,10.37ZM7,9.06a2.62,2.62,0,1,0,2.56,2.62A2.59,2.59,0,0,0,7,9.06Z" transform="translate(-0.63 -5.13)"/></svg>