<svg id="Layer_1" data-name="Layer 1" xmlns="http://www.w3.org/2000/svg" viewBox="0 0 30.75 23.43"><defs><style>.cls-1{fill:#818181;}</style></defs><title>lock</title><path class="cls-1" d="M29.6,14H29.37L27,5.59A0.86,0.86,0,0,0,26.19,5H5.69a0.86,0.86,0,0,0-.81.62L2.51,14H2.27a1.76,1.76,0,0,0-1.71,1.8V23a1.76,1.76,0,0,0,1.71,1.8v1.8A1.76,1.76,0,0,0,4,28.4a1.76,1.76,0,0,0,1.71-1.8V24.8h20.5v1.8a1.71,1.71,0,1,0,3.42,0V24.8A1.76,1.76,0,0,0,31.31,23V15.79A1.76,1.76,0,0,0,29.6,14ZM7,7.68h18L26.69,14H5.18ZM4.83,20.52a2,2,0,0,1,0-4.05A2,2,0,0,1,4.83,20.52Zm22.21,0a2,2,0,1,1,1.92-2A2,2,0,0,1,27,20.52Z" transform="translate(-0.56 -4.97)"/></svg>