<?xml version="1.0" encoding="utf-8"?>
<!-- Generator: Adobe Illustrator 19.2.1, SVG Export Plug-In . SVG Version: 6.00 Build 0)  -->
<svg version="1.1" id="Layer_1" xmlns="http://www.w3.org/2000/svg" xmlns:xlink="http://www.w3.org/1999/xlink" x="0px" y="0px"
	 width="30.8px" height="23.4px" viewBox="0 0 30.8 23.4" enable-background="new 0 0 30.8 23.4" xml:space="preserve">
<title>lock</title>
<path fill="#818181" d="M29,9h-0.2l-2.4-8.4C26.3,0.3,26,0,25.6,0H5.1C4.8,0,4.4,0.3,4.3,0.7L2,9H1.7c-1,0-1.7,0.8-1.7,1.8V18
	c0,1,0.7,1.8,1.7,1.8v1.8c0,1,0.7,1.8,1.7,1.8c0,0,0,0,0,0c1,0,1.7-0.8,1.7-1.8v-1.8h20.5v1.8c0,0.9,0.8,1.7,1.7,1.7
	c0.9,0,1.7-0.8,1.7-1.7c0,0,0,0,0,0v-1.8c1,0,1.7-0.8,1.7-1.8v-7.2C30.8,9.9,30,9.1,29,9z M6.4,2.7h18L26.1,9H4.6L6.4,2.7z
	 M4.3,15.6c-1.1,0-2-0.9-2-2s0.9-2,2-2s2,0.9,2,2S5.4,15.6,4.3,15.6z M26.5,15.6c-1.1,0-2-0.8-2.1-1.9c0-1.1,0.8-2,1.9-2.1
	c1.1,0,2,0.8,2.1,1.9c0,0,0,0.1,0,0.1C28.4,14.6,27.5,15.5,26.5,15.6L26.5,15.6z"/>
</svg>
