<?xml version="1.0" encoding="utf-8"?>
<!-- Generator: Adobe Illustrator 19.2.1, SVG Export Plug-In . SVG Version: 6.00 Build 0)  -->
<svg version="1.1" id="Layer_1" xmlns="http://www.w3.org/2000/svg" xmlns:xlink="http://www.w3.org/1999/xlink" x="0px" y="0px"
	 width="30px" height="22.9px" viewBox="0 0 30 22.9" enable-background="new 0 0 30 22.9" xml:space="preserve">
<title>email</title>
<path fill="#818181" d="M30,17.7V5.2l-9.8,6.2L30,17.7z M0.2,21.3c0.5,1,1.5,1.7,2.6,1.6h24.4c1.1,0,2.1-0.6,2.6-1.6
	c0.2-0.4,0.2-0.7,0.2-1.1l-11.8-7.5l-3.2,2l-3.2-2L0,20.2C0,20.6,0.1,20.9,0.2,21.3z M0,5.2v12.5l9.8-6.3L0,5.2z M2.8,0
	C1.7,0,0.7,0.6,0.2,1.6C0.1,2,0,2.4,0,2.8l15,9.5l15-9.5c0-0.4-0.1-0.8-0.2-1.1c-0.5-1-1.5-1.6-2.6-1.6L2.8,0L2.8,0z"/>
</svg>
