<svg id="Layer_1" data-name="Layer 1" xmlns="http://www.w3.org/2000/svg" viewBox="0 0 30 22.94"><defs><style>.cls-1{fill:#818181;fill-rule:evenodd;}</style></defs><title>email</title><path class="cls-1" d="M31,22.25V9.75L21.16,16ZM1.24,25.82a2.81,2.81,0,0,0,2.57,1.65H28.19a2.82,2.82,0,0,0,2.57-1.64A2.71,2.71,0,0,0,31,24.71L19.22,17.23l-3.22,2-3.22-2L1,24.71A2.73,2.73,0,0,0,1.24,25.82ZM1,9.75V22.25L10.84,16ZM3.81,4.53A2.81,2.81,0,0,0,1.24,6.18,2.7,2.7,0,0,0,1,7.29l15,9.52L31,7.29a2.72,2.72,0,0,0-.24-1.13,2.82,2.82,0,0,0-2.57-1.64H3.81Z" transform="translate(-1 -4.53)"/></svg>