<?xml version="1.0" encoding="utf-8"?>
<!-- Generator: Adobe Illustrator 16.0.3, SVG Export Plug-In . SVG Version: 6.00 Build 0)  -->
<!DOCTYPE svg PUBLIC "-//W3C//DTD SVG 1.1//EN" "http://www.w3.org/Graphics/SVG/1.1/DTD/svg11.dtd">
<svg version="1.1" id="Layer_1" xmlns="http://www.w3.org/2000/svg" xmlns:xlink="http://www.w3.org/1999/xlink" x="0px" y="0px"
	 width="32px" height="32px" viewBox="0 0 32 32" enable-background="new 0 0 32 32" xml:space="preserve">
<g>
	<path fill="#818181" d="M9.823,8.74c0-3.134,2.771-5.683,6.177-5.683c3.405,0,6.176,2.549,6.176,5.683v5.083h2.748V8.74
		c0-1.152-0.24-2.27-0.716-3.322c-0.455-1.007-1.104-1.911-1.932-2.684C20.593,1.16,18.365,0.293,16,0.293
		c-2.366,0-4.595,0.867-6.276,2.44C8.897,3.507,8.247,4.411,7.792,5.418C7.315,6.47,7.074,7.587,7.074,8.74v5.083h2.749V8.74z
		 M26.509,14.957H5.491c-0.956,0-1.73,1.024-1.73,2.289v12.171c0,1.263,0.774,2.289,1.73,2.289h21.018
		c0.956,0,1.729-1.026,1.729-2.289V17.246C28.238,15.981,27.465,14.957,26.509,14.957z M16.907,22.167
		c0.001,0.018,0.002,0.034,0.002,0.053v2.537c0,0.504-0.407,0.913-0.909,0.913c-0.502,0-0.91-0.409-0.91-0.913V22.22
		c0-0.019,0.001-0.035,0.002-0.053c-0.794-0.353-1.35-1.15-1.35-2.077c0-1.254,1.011-2.269,2.257-2.269
		c1.244,0,2.256,1.015,2.256,2.269C18.256,21.017,17.7,21.814,16.907,22.167z"/>
</g>
</svg>
