<?xml version="1.0" encoding="utf-8"?>
<!-- Generator: Adobe Illustrator 19.2.1, SVG Export Plug-In . SVG Version: 6.00 Build 0)  -->
<svg version="1.1" id="Layer_1" xmlns="http://www.w3.org/2000/svg" xmlns:xlink="http://www.w3.org/1999/xlink" x="0px" y="0px"
	 width="32px" height="32px" viewBox="0 0 32 32" enable-background="new 0 0 32 32" xml:space="preserve">
<g>
	<path fill="#818181" d="M9.8,8.7c0-3.1,2.8-5.7,6.2-5.7c3.4,0,6.2,2.5,6.2,5.7v5.1h2.7V8.7c0-1.2-0.2-2.3-0.7-3.3
		c-0.5-1-1.1-1.9-1.9-2.7c-1.7-1.6-3.9-2.4-6.3-2.4c-2.4,0-4.6,0.9-6.3,2.4C8.9,3.5,8.2,4.4,7.8,5.4C7.3,6.5,7.1,7.6,7.1,8.7v5.1
		h2.7V8.7z M26.5,15h-21c-1,0-1.7,1-1.7,2.3v12.2c0,1.3,0.8,2.3,1.7,2.3h21c1,0,1.7-1,1.7-2.3V17.2C28.2,16,27.5,15,26.5,15z
		 M16.9,22.2C16.9,22.2,16.9,22.2,16.9,22.2l0,2.6c0,0.5-0.4,0.9-0.9,0.9c-0.5,0-0.9-0.4-0.9-0.9v-2.5c0,0,0,0,0-0.1
		c-0.8-0.4-1.4-1.1-1.4-2.1c0-1.3,1-2.3,2.3-2.3c1.2,0,2.3,1,2.3,2.3C18.3,21,17.7,21.8,16.9,22.2z"/>
</g>
</svg>
