<svg id="Layer_1" data-name="Layer 1" xmlns="http://www.w3.org/2000/svg" viewBox="0 0 19.53 30.78"><defs><style>.cls-1{fill:#818181;}</style></defs><title>mobile</title><path id="rect10501" class="cls-1" d="M8.36,0.61A2.34,2.34,0,0,0,6.23,3.13V28.87a2.34,2.34,0,0,0,2.13,2.51H23.64a2.34,2.34,0,0,0,2.13-2.51V3.13A2.34,2.34,0,0,0,23.64.61H8.36Zm2.23,3.83H21.41a1.17,1.17,0,0,1,1.11,1.23v16.7a1.17,1.17,0,0,1-1.11,1.23H10.59a1.17,1.17,0,0,1-1.11-1.23V5.67A1.17,1.17,0,0,1,10.59,4.44Zm3.95,21.14H17.7v1.83H14.53V25.58Z" transform="translate(-6.23 -0.61)"/></svg>