<?xml version="1.0" encoding="utf-8"?>
<!-- Generator: Adobe Illustrator 19.2.1, SVG Export Plug-In . SVG Version: 6.00 Build 0)  -->
<svg version="1.1" id="Layer_1" xmlns="http://www.w3.org/2000/svg" xmlns:xlink="http://www.w3.org/1999/xlink" x="0px" y="0px"
	 width="19.5px" height="30.8px" viewBox="0 0 19.5 30.8" enable-background="new 0 0 19.5 30.8" xml:space="preserve">
<title>mobile</title>
<path id="rect10501" fill="#818181" d="M2.1,0C0.8,0.1-0.1,1.2,0,2.5v25.7c-0.1,1.3,0.9,2.4,2.1,2.5h15.3c1.3-0.1,2.2-1.2,2.1-2.5
	V2.5c0.1-1.3-0.8-2.4-2.1-2.5H2.1z M4.4,3.8h10.8c0.6,0,1.1,0.6,1.1,1.2c0,0,0,0,0,0v16.7c0,0.6-0.5,1.2-1.1,1.2c0,0,0,0,0,0H4.4
	c-0.6,0-1.1-0.6-1.1-1.2c0,0,0,0,0,0V5.1C3.2,4.4,3.7,3.9,4.4,3.8C4.4,3.8,4.4,3.8,4.4,3.8z M8.3,25h3.2v1.8H8.3L8.3,25L8.3,25z"/>
</svg>
